<mxfile host="app.diagrams.net" modified="2023-09-06T09:51:10.548Z" agent="Mozilla/5.0 (Windows NT 10.0; Win64; x64) AppleWebKit/537.36 (KHTML, like Gecko) Chrome/116.0.0.0 Safari/537.36 Edg/116.0.1938.69" etag="q0d8FO21nSEuXpwYun52" version="21.6.8" type="github">
  <diagram name="Page-1" id="VRVFEJPNo1pAjKYbEXKr">
    <mxGraphModel dx="1434" dy="756" grid="1" gridSize="10" guides="1" tooltips="1" connect="1" arrows="1" fold="1" page="1" pageScale="1" pageWidth="827" pageHeight="1169" math="0" shadow="0">
      <root>
        <mxCell id="0" />
        <mxCell id="1" parent="0" />
        <mxCell id="eY1hT1xV_IKC4yV7VGSO-5" style="edgeStyle=orthogonalEdgeStyle;rounded=0;orthogonalLoop=1;jettySize=auto;html=1;entryX=0.5;entryY=0;entryDx=0;entryDy=0;" edge="1" parent="1" source="eY1hT1xV_IKC4yV7VGSO-1" target="eY1hT1xV_IKC4yV7VGSO-2">
          <mxGeometry relative="1" as="geometry" />
        </mxCell>
        <mxCell id="eY1hT1xV_IKC4yV7VGSO-1" value="Create UX / Wireframes" style="rounded=1;whiteSpace=wrap;html=1;" vertex="1" parent="1">
          <mxGeometry x="200" y="100" width="180" height="60" as="geometry" />
        </mxCell>
        <mxCell id="eY1hT1xV_IKC4yV7VGSO-6" style="edgeStyle=orthogonalEdgeStyle;rounded=0;orthogonalLoop=1;jettySize=auto;html=1;" edge="1" parent="1" source="eY1hT1xV_IKC4yV7VGSO-2" target="eY1hT1xV_IKC4yV7VGSO-4">
          <mxGeometry relative="1" as="geometry" />
        </mxCell>
        <mxCell id="eY1hT1xV_IKC4yV7VGSO-7" style="edgeStyle=orthogonalEdgeStyle;rounded=0;orthogonalLoop=1;jettySize=auto;html=1;" edge="1" parent="1" source="eY1hT1xV_IKC4yV7VGSO-2" target="eY1hT1xV_IKC4yV7VGSO-3">
          <mxGeometry relative="1" as="geometry" />
        </mxCell>
        <mxCell id="eY1hT1xV_IKC4yV7VGSO-2" value="Review Wireframes" style="rounded=1;whiteSpace=wrap;html=1;" vertex="1" parent="1">
          <mxGeometry x="200" y="240" width="180" height="60" as="geometry" />
        </mxCell>
        <mxCell id="eY1hT1xV_IKC4yV7VGSO-8" style="edgeStyle=orthogonalEdgeStyle;rounded=0;orthogonalLoop=1;jettySize=auto;html=1;entryX=0;entryY=0.5;entryDx=0;entryDy=0;" edge="1" parent="1" source="eY1hT1xV_IKC4yV7VGSO-3" target="eY1hT1xV_IKC4yV7VGSO-1">
          <mxGeometry relative="1" as="geometry">
            <Array as="points">
              <mxPoint x="70" y="400" />
              <mxPoint x="70" y="130" />
            </Array>
          </mxGeometry>
        </mxCell>
        <mxCell id="eY1hT1xV_IKC4yV7VGSO-3" value="Feedback / Changes requested" style="rounded=1;whiteSpace=wrap;html=1;" vertex="1" parent="1">
          <mxGeometry x="200" y="370" width="180" height="60" as="geometry" />
        </mxCell>
        <mxCell id="eY1hT1xV_IKC4yV7VGSO-11" style="edgeStyle=orthogonalEdgeStyle;rounded=0;orthogonalLoop=1;jettySize=auto;html=1;entryX=0.45;entryY=-0.083;entryDx=0;entryDy=0;entryPerimeter=0;" edge="1" parent="1" source="eY1hT1xV_IKC4yV7VGSO-4" target="eY1hT1xV_IKC4yV7VGSO-9">
          <mxGeometry relative="1" as="geometry" />
        </mxCell>
        <mxCell id="eY1hT1xV_IKC4yV7VGSO-4" value="Agreed Solutions" style="rounded=1;whiteSpace=wrap;html=1;" vertex="1" parent="1">
          <mxGeometry x="440" y="240" width="180" height="60" as="geometry" />
        </mxCell>
        <mxCell id="eY1hT1xV_IKC4yV7VGSO-12" style="edgeStyle=orthogonalEdgeStyle;rounded=0;orthogonalLoop=1;jettySize=auto;html=1;" edge="1" parent="1" source="eY1hT1xV_IKC4yV7VGSO-9" target="eY1hT1xV_IKC4yV7VGSO-10">
          <mxGeometry relative="1" as="geometry" />
        </mxCell>
        <mxCell id="eY1hT1xV_IKC4yV7VGSO-9" value="High Level Backlog" style="rounded=1;whiteSpace=wrap;html=1;" vertex="1" parent="1">
          <mxGeometry x="449" y="380" width="180" height="60" as="geometry" />
        </mxCell>
        <mxCell id="eY1hT1xV_IKC4yV7VGSO-10" value="" style="rounded=1;whiteSpace=wrap;html=1;" vertex="1" parent="1">
          <mxGeometry x="449" y="540" width="180" height="60" as="geometry" />
        </mxCell>
      </root>
    </mxGraphModel>
  </diagram>
</mxfile>
